<?xml version="1.0" encoding="UTF-8"?>
<svg id="Layer_1" data-name="Layer 1" xmlns="http://www.w3.org/2000/svg" viewBox="0 0 14 12">
  <defs>
    <style>
      .cls-1 {
        fill: #fff;
      }
    </style>
  </defs>
  <path class="cls-1" d="m5.78,6.06V1.47c0-.54.1-.65.64-.66.77,0,1.55-.07,2.31.03.96.13,1.91.35,2.51,1.26.42.64.44,1.36.4,2.07-.11,1.91-1.33,2.99-3.24,2.98-.84,0-.83,0-.81.83,0,.92,0,1.83,0,2.75,0,.31-.1.48-.45.44-.28-.03-.56,0-.84,0-.44-.03-.49-.08-.49-.52v-4.59s-.03,0-.03,0Zm1.8-2.07v1.17c0,.17.05.28.24.29.44,0,.87.02,1.29-.1.25-.07.44-.22.59-.45.35-.57.26-1.12,0-1.68-.17-.35-.44-.55-.82-.6-.3-.03-.6-.03-.9-.07-.31-.03-.43.08-.41.39.02.36,0,.72,0,1.07h0Z"/>
  <path class="cls-1" d="m1.97,5.65v-.65c.02-.27-.09-.38-.37-.37-.4.03-.79.03-1.19.06-.23.02-.33-.07-.32-.31,0-.3,0-.58-.02-.88,0-.24.07-.37.34-.34.38.03.78.02,1.16.02.35,0,.39-.05.39-.39,0-.37,0-.74-.02-1.11,0-.35.15-.51.5-.48.2.02.39.03.59,0,.33-.03.44.09.45.42v1.22c0,.22.09.31.3.31.42,0,.84.03,1.25.02.24,0,.36.1.4.34.05.28.03.57.03.85,0,.22-.12.32-.35.32-.44,0-.87,0-1.3-.03-.22-.02-.3.04-.3.26,0,.49-.03.99,0,1.47,0,.24-.1.35-.31.37-.31.03-.62.04-.93-.02-.19-.03-.28-.14-.27-.33v-.77h-.03Z"/>
  <path class="cls-1" d="m11.27,11.2c-.93,0-.96-.03-1.33-1.04-.24-.68-.45-1.38-.68-2.06-.04-.13-.09-.25.06-.31.31-.12.55-.35.84-.48.3-.13.44-.04.47.28.04.66.36,1.26.37,1.93,0,.12.08.24.22.26.16.02.22-.1.25-.22.08-.21.15-.42.19-.64.17-.85.49-1.66.64-2.51.14-.77.7-1.05,1.44-.79.19.06.19.21.15.35-.07.28-.17.55-.25.83-.37,1.32-.89,2.59-1.22,3.92-.07.27-.22.45-.54.44-.21,0-.42.03-.64.04h.03,0Z"/>
</svg>