<?xml version="1.0" encoding="UTF-8"?>
<svg xmlns="http://www.w3.org/2000/svg" viewBox="0 0 14 12">
  <defs>
    <style>
      .cls-1 {
        fill: #ffa724;
      }

      .cls-2 {
        fill: #1e2129;
      }
    </style>
  </defs>
  <g id="Layer_2" data-name="Layer 2">
    <rect class="cls-2" width="14" height="12"/>
  </g>
  <g id="Layer_1" data-name="Layer 1">
    <path class="cls-1" d="m5.97,6.05v-3.88c0-.46.08-.55.54-.56.65,0,1.31-.06,1.95.03.81.11,1.62.3,2.12,1.07.36.54.37,1.15.34,1.75-.09,1.62-1.13,2.53-2.74,2.52-.71,0-.7,0-.69.7v2.33c0,.26-.08.41-.38.37-.24-.03-.47,0-.71,0-.37-.03-.41-.07-.41-.44m1.5-5.64v.99c0,.14.04.24.2.25.37,0,.74.02,1.09-.08.21-.06.37-.19.5-.38.3-.48.22-.95,0-1.42-.14-.3-.37-.47-.69-.51-.25-.03-.51-.03-.76-.06-.26-.03-.36.07-.35.33.02.3,0,.61,0,.91h0v-.02Z"/>
    <path class="cls-1" d="m2.74,5.15c.02-.23-.08-.32-.31-.31-.34.03-.67.03-1.01.05-.19.02-.28-.06-.27-.26,0-.25,0-.49-.02-.74,0-.2.06-.31.29-.29.32.03.66.02.98.02.3,0,.33-.04.33-.33,0-.31,0-.63-.02-.94,0-.3.13-.43.42-.41.17.02.33.03.5,0,.28-.03.37.08.38.36v1.03c0,.19.08.26.25.26.36,0,.71.03,1.06.02.2,0,.3.08.34.29.04.24.03.48.03.72,0,.19-.1.27-.3.27-.37,0-.74,0-1.1-.03-.19-.02-.25.03-.25.22,0,.41-.03.84,0,1.24,0,.2-.08.3-.26.31-.26.03-.52.03-.79-.02-.16-.03-.24-.12-.23-.28"/>
    <path class="cls-1" d="m10.61,10.4c-.79,0-.81-.03-1.13-.88-.2-.58-.38-1.17-.58-1.74-.03-.11-.08-.21.05-.26.26-.1.47-.3.71-.41.25-.11.37-.03.4.24.03.56.3,1.07.31,1.63,0,.1.07.2.19.22.14.02.19-.08.21-.19.07-.18.13-.36.16-.54.14-.72.41-1.4.54-2.12.12-.65.59-.89,1.22-.67.16.05.16.18.13.3-.06.24-.14.47-.21.7-.31,1.12-.75,2.19-1.03,3.32-.06.23-.19.38-.46.37-.18,0-.36.03-.54.03h.03Z"/>
  </g>
</svg>